<svg xmlns="http://www.w3.org/2000/svg" width="43.985" height="23.914" viewBox="0 0 43.985 23.914">
  <path id="Path_6" data-name="Path 6" d="M31,22.358a4.815,4.815,0,1,1-4.763,5.506A4.819,4.819,0,0,1,31,22.358Zm22,0a4.817,4.817,0,1,1-4.762,5.505A4.822,4.822,0,0,1,53,22.358Zm-15.04-6.083v1.462a1.29,1.29,0,0,0,1.352,1.29A1.315,1.315,0,0,0,40.541,17.7V16.275h8.3l13.056.716a1.29,1.29,0,0,1,1.164.917c.27.9.446,1.477.563,1.87H62.577a1.314,1.314,0,0,0-1.324,1.228,1.29,1.29,0,0,0,1.288,1.352h1.445a5.975,5.975,0,0,1-3.6,5.05,7.389,7.389,0,1,0-14.742.456H38.359a7.4,7.4,0,0,0-8.131-8.046V16.275h7.734Zm-10.312,0v4.308a7.4,7.4,0,0,0-4.006,7.274A3.874,3.874,0,0,1,20,23.993V22.358h1.46a1.29,1.29,0,1,0,0-2.58H20V16.565l0-.29Zm14.986-8.2a6.415,6.415,0,0,1,5.984,4.055l.63,1.579-.065,0-.026,0-.034,0-.022,0q-.112-.006-.224-.006H40.211L38.528,8.08ZM29,8.079l-1.122,5.616H20.738l1.47-4.71a1.29,1.29,0,0,1,1.231-.906H29Zm6.832,0,1.683,5.615H30.512l1.121-5.615Z" transform="translate(-20.001 -8.079)" fill="#26b5c0"/>
</svg>
