<svg xmlns="http://www.w3.org/2000/svg" width="43.915" height="17.999" viewBox="0 0 43.915 17.999">
  <path id="Path_7" data-name="Path 7" d="M30.98,22.835a3.583,3.583,0,1,1-3.517,3.583,3.55,3.55,0,0,1,3.517-3.583Zm21.956,0a3.583,3.583,0,1,1-3.516,3.583A3.551,3.551,0,0,1,52.936,22.835Zm-9.143-10.45a1.27,1.27,0,0,1,1.819,0l3.715,3.784a26.5,26.5,0,0,1,13.964,3.753,1.317,1.317,0,0,1,.624,1.124,6.137,6.137,0,0,1-4.926,6.05A6.1,6.1,0,1,0,46.9,27.2H37.228c.76-1.544.993-2.026,1.337-2.711l.082-.162c.421-.835,1.056-2.07,2.883-5.65a10.907,10.907,0,0,0,5.247-1.4l-2.984-3.04a1.328,1.328,0,0,1,0-1.854Zm-7.68,1.064a1.284,1.284,0,0,1,1.592.9L38.454,17a3.46,3.46,0,0,1-.247,2.51l-1.733,3.4-.216.424a6.076,6.076,0,0,0-5.279-3.114A6.167,6.167,0,0,0,24.927,27.1a6.031,6.031,0,0,1-4.278-3.276,1.331,1.331,0,0,1,.117-1.376l.955-1.3-1.325-1.3a1.319,1.319,0,0,1,.64-2.231l6.614-1.346.13-.026c.092-.019.145-.03.157-.031a1.709,1.709,0,0,0,1.07-1.506,1.3,1.3,0,0,1,1.316-1.31,1.343,1.343,0,0,1,1.256,1.388,4.11,4.11,0,0,1-.348,1.611,22.69,22.69,0,0,1,4.7,1.146l-.7-2.473a1.314,1.314,0,0,1,.882-1.622Z" transform="translate(-20 -12.001)" fill="#19b89d"/>
</svg>
