<svg xmlns="http://www.w3.org/2000/svg" width="43.915" height="20" viewBox="0 0 43.915 20">
  <path id="Path_5" data-name="Path 5" d="M52.936,24.11a3.446,3.446,0,1,1-3.516,3.445A3.482,3.482,0,0,1,52.936,24.11Zm-21.957,0a3.446,3.446,0,1,1-3.516,3.445,3.482,3.482,0,0,1,3.516-3.445Zm6.948-4.848v1.429a1.275,1.275,0,0,0,1.348,1.259,1.3,1.3,0,0,0,1.225-1.3V19.262h8.256l13.483,1.313a1.837,1.837,0,0,1,1.676,1.814,5.966,5.966,0,0,1-4.926,5.819,6.076,6.076,0,1,0-12.092.1H37.018a6.075,6.075,0,1,0-12.091-.1,6.041,6.041,0,0,1-4.61-3.931h1.142a1.273,1.273,0,0,0,1.285-1.322,1.3,1.3,0,0,0-1.322-1.2H20V21.5a2.274,2.274,0,0,1,2.306-2.243h15.62ZM42.59,11a6.4,6.4,0,0,1,5.972,3.963l.726,1.779H40.17L38.413,11h4.178Zm-6.865,0,1.758,5.741H26.5l3.357-3.654A6.5,6.5,0,0,1,34.644,11h1.082Z" transform="translate(-20 -11)" fill="#ffd473"/>
</svg>
